<svg width="100" height="23" viewBox="0 0 100 23" fill="none" xmlns="http://www.w3.org/2000/svg">
<path d="M87.0218 8.95152L86.9349 10.0234L87.3984 9.35709L95.307 0.86908L99.6814 0.86908L90.9616 10.0813L100 21.9587H95.7126L88.4992 12.225L87.0218 13.6735V21.9587H83.6034V0.86908H87.0218V8.95152Z" fill="#1C1C16"/>
<path d="M77.6556 20.3075C77.3659 20.5199 76.9121 20.7807 76.294 21.0897C75.676 21.3987 74.9421 21.669 74.0924 21.9008C73.2619 22.1132 72.3349 22.2098 71.3113 22.1905C69.6697 22.1712 68.1923 21.8815 66.879 21.3214C65.5657 20.742 64.4553 19.9695 63.5475 19.0039C62.6398 18.0189 61.9349 16.8988 61.4328 15.6434C60.95 14.3688 60.7086 13.0169 60.7086 11.5877C60.7086 9.98476 60.9596 8.51698 61.4618 7.18439C61.9639 5.8518 62.6785 4.70269 63.6055 3.73705C64.5325 2.75209 65.6333 1.98923 66.908 1.44847C68.1826 0.90771 69.5732 0.637329 71.0796 0.637329C72.4122 0.637329 73.5999 0.820802 74.6428 1.18775C75.705 1.53538 76.5934 1.93129 77.308 2.37549L75.9754 5.56211C75.4346 5.17585 74.7587 4.79925 73.9475 4.43231C73.1364 4.06536 72.219 3.88189 71.1954 3.88189C70.2684 3.88189 69.38 4.07502 68.5303 4.46128C67.6805 4.82822 66.937 5.35933 66.2996 6.05459C65.6623 6.73054 65.1505 7.52237 64.7643 8.43007C64.3973 9.33778 64.2138 10.3227 64.2138 11.3849C64.2138 12.4858 64.378 13.4997 64.7063 14.4267C65.0539 15.3344 65.5368 16.1263 66.1548 16.8022C66.7921 17.4782 67.5453 18.0093 68.4144 18.3955C69.3028 18.7625 70.2877 18.9459 71.3693 18.9459C72.4701 18.9459 73.4261 18.7818 74.2372 18.4535C75.0677 18.1058 75.734 17.7196 76.2361 17.2947L77.6556 20.3075Z" fill="#1C1C16"/>
<path d="M56.0644 20.3075C55.7747 20.5199 55.3209 20.7807 54.7029 21.0897C54.0849 21.3987 53.351 21.669 52.5012 21.9008C51.6708 22.1132 50.7437 22.2098 49.7202 22.1905C48.0786 22.1712 46.6011 21.8815 45.2879 21.3214C43.9746 20.742 42.8641 19.9695 41.9564 19.0039C41.0487 18.0189 40.3438 16.8988 39.8416 15.6434C39.3588 14.3688 39.1174 13.0169 39.1174 11.5877C39.1174 9.98476 39.3685 8.51698 39.8706 7.18439C40.3727 5.8518 41.0873 4.70269 42.0143 3.73705C42.9413 2.75209 44.0422 1.98923 45.3168 1.44847C46.5915 0.90771 47.982 0.637329 49.4884 0.637329C50.821 0.637329 52.0087 0.820802 53.0516 1.18775C54.1138 1.53538 55.0022 1.93129 55.7168 2.37549L54.3842 5.56211C53.8435 5.17585 53.1675 4.79925 52.3564 4.43231C51.5452 4.06536 50.6279 3.88189 49.6043 3.88189C48.6773 3.88189 47.7889 4.07502 46.9391 4.46128C46.0893 4.82822 45.3458 5.35933 44.7085 6.05459C44.0712 6.73054 43.5594 7.52237 43.1731 8.43007C42.8062 9.33778 42.6227 10.3227 42.6227 11.3849C42.6227 12.4858 42.7868 13.4997 43.1152 14.4267C43.4628 15.3344 43.9456 16.1263 44.5636 16.8022C45.201 17.4782 45.9542 18.0093 46.8232 18.3955C47.7116 18.7625 48.6966 18.9459 49.7781 18.9459C50.8789 18.9459 51.8349 18.7818 52.6461 18.4535C53.4765 18.1058 54.1428 17.7196 54.6449 17.2947L56.0644 20.3075Z" fill="#1C1C16"/>
<path d="M17.9456 21.9587L27.2737 0L27.4765 0L36.8046 21.9587H32.9227L26.3467 5.30138L28.7801 3.65013L21.2771 21.9587H17.9456Z" fill="#1C1C16"/>
<circle cx="27.1997" cy="17.1305" r="2.01176" fill="#1C1C16"/>
<path d="M12.7465 5.15654C11.9933 4.77028 11.1918 4.44196 10.342 4.17158C9.49228 3.88189 8.68113 3.73704 7.90862 3.73704C6.86572 3.73704 6.03527 3.9688 5.41726 4.43231C4.81856 4.89582 4.51921 5.53314 4.51921 6.34428C4.51921 6.92367 4.73165 7.43546 5.15654 7.87965C5.58142 8.30454 6.12218 8.68114 6.77882 9.00946C7.43545 9.31846 8.13072 9.61781 8.86461 9.90751C9.50193 10.1393 10.1296 10.4193 10.7476 10.7476C11.3849 11.0566 11.9547 11.4429 12.4568 11.9064C12.9589 12.3699 13.3549 12.9493 13.6445 13.6445C13.9535 14.3205 14.1081 15.1606 14.1081 16.1649C14.1081 17.2657 13.828 18.2796 13.2679 19.2067C12.7079 20.1144 11.9064 20.8386 10.8635 21.3794C9.82059 21.9201 8.54594 22.1905 7.03954 22.1905C6.17046 22.1905 5.31104 22.0939 4.46127 21.9008C3.63082 21.7077 2.83899 21.4469 2.08579 21.1186C1.33259 20.771 0.637325 20.3847 0 19.9599L1.5064 17.3236C1.96991 17.6713 2.50102 17.9899 3.09971 18.2796C3.69841 18.5693 4.31643 18.8011 4.95375 18.9749C5.59108 19.1294 6.18977 19.2067 6.74985 19.2067C7.34855 19.2067 7.93759 19.1101 8.51697 18.917C9.11567 18.7238 9.60815 18.4052 9.99441 17.961C10.4 17.5168 10.6028 16.9277 10.6028 16.1938C10.6028 15.5951 10.4289 15.0834 10.0813 14.6585C9.73369 14.2336 9.27983 13.8666 8.71976 13.5576C8.179 13.2293 7.5803 12.9396 6.92366 12.6886C6.26703 12.4375 5.59108 12.1575 4.89581 11.8484C4.21986 11.5394 3.59219 11.1628 3.01281 10.7186C2.43342 10.2551 1.96026 9.69506 1.59331 9.03843C1.22637 8.38179 1.04289 7.57065 1.04289 6.605C1.04289 5.44623 1.31327 4.44196 1.85403 3.5922C2.39479 2.74243 3.13834 2.06648 4.08467 1.56434C5.05032 1.06221 6.1608 0.791831 7.41614 0.753204C8.90323 0.753204 10.1682 0.936677 11.2111 1.30362C12.2733 1.65125 13.21 2.07614 14.0211 2.57827L12.7465 5.15654Z" fill="#1C1C16"/>
</svg>
