<svg width="180" height="180" viewBox="0 0 180 180" fill="none" xmlns="http://www.w3.org/2000/svg">
<rect x="2" y="2" width="176" height="176" rx="88" fill="#F7F4ED" stroke="#1C1C16" stroke-width="4"/>
<path d="M113.514 63.4865C110.351 61.8649 106.986 60.4865 103.419 59.3514C99.8514 58.1351 96.4459 57.527 93.2027 57.527C88.8243 57.527 85.3378 58.5 82.7432 60.4459C80.2297 62.3919 78.973 65.0676 78.973 68.473C78.973 70.9054 79.8649 73.0541 81.6486 74.9189C83.4324 76.7027 85.7027 78.2838 88.4595 79.6622C91.2162 80.9595 94.1351 82.2162 97.2162 83.4324C99.8919 84.4054 102.527 85.5811 105.122 86.9595C107.797 88.2568 110.189 89.8784 112.297 91.8243C114.405 93.7703 116.068 96.2027 117.284 99.1216C118.581 101.959 119.23 105.486 119.23 109.703C119.23 114.324 118.054 118.581 115.703 122.473C113.351 126.284 109.986 129.324 105.608 131.595C101.23 133.865 95.8784 135 89.554 135C85.9054 135 82.2973 134.595 78.7297 133.784C75.2432 132.973 71.9189 131.878 68.7568 130.5C65.5946 129.041 62.6757 127.419 60 125.635L66.3243 114.568C68.2703 116.027 70.5 117.365 73.0135 118.581C75.527 119.797 78.1216 120.77 80.7973 121.5C83.473 122.149 85.9865 122.473 88.3378 122.473C90.8513 122.473 93.3243 122.068 95.7568 121.257C98.2703 120.446 100.338 119.108 101.959 117.243C103.662 115.378 104.514 112.905 104.514 109.824C104.514 107.311 103.784 105.162 102.324 103.378C100.865 101.595 98.9595 100.054 96.6081 98.7568C94.3378 97.3784 91.8243 96.1622 89.0676 95.1081C86.3108 94.0541 83.473 92.8784 80.5541 91.5811C77.7162 90.2838 75.0811 88.7027 72.6486 86.8378C70.2162 84.8919 68.2297 82.5405 66.6892 79.7838C65.1486 77.027 64.3784 73.6216 64.3784 69.5676C64.3784 64.7027 65.5135 60.4865 67.7838 56.9189C70.054 53.3514 73.1757 50.5135 77.1486 48.4054C81.2027 46.2973 85.8649 45.1622 91.1351 45C97.3784 45 102.689 45.7703 107.068 47.3108C111.527 48.7703 115.459 50.5541 118.865 52.6622L113.514 63.4865Z" fill="#1C1C16"/>
</svg>
