<svg width="180" height="180" viewBox="0 0 180 180" fill="none" xmlns="http://www.w3.org/2000/svg">
<rect x="4" y="4" width="172" height="172" rx="86" fill="#F7F4ED" stroke="#1C1C16" stroke-width="8"/>
<path d="M114.209 63.4865C111.006 61.8649 107.598 60.4865 103.984 59.3514C100.37 58.1351 96.9199 57.527 93.6345 57.527C89.1992 57.527 85.6673 58.5 83.039 60.4459C80.4928 62.3919 79.2197 65.0676 79.2197 68.473C79.2197 70.9054 80.1232 73.0541 81.9302 74.9189C83.7372 76.7027 86.037 78.2838 88.8296 79.6622C91.6222 80.9595 94.579 82.2162 97.7002 83.4324C100.411 84.4054 103.08 85.5811 105.708 86.9595C108.419 88.2568 110.842 89.8784 112.977 91.8243C115.113 93.7703 116.797 96.2027 118.029 99.1216C119.343 101.959 120 105.486 120 109.703C120 114.324 118.809 118.581 116.427 122.473C114.045 126.284 110.637 129.324 106.201 131.595C101.766 133.865 96.345 135 89.9384 135C86.2423 135 82.5873 134.595 78.9733 133.784C75.4415 132.973 72.0739 131.878 68.8706 130.5C65.6673 129.041 62.7105 127.419 60 125.635L66.4066 114.568C68.3778 116.027 70.6365 117.365 73.1827 118.581C75.7289 119.797 78.3573 120.77 81.0678 121.5C83.7782 122.149 86.3244 122.473 88.7064 122.473C91.2526 122.473 93.7577 122.068 96.2218 121.257C98.768 120.446 100.862 119.108 102.505 117.243C104.23 115.378 105.092 112.905 105.092 109.824C105.092 107.311 104.353 105.162 102.875 103.378C101.396 101.595 99.4661 100.054 97.0842 98.7568C94.7844 97.3784 92.2382 96.1622 89.4456 95.1081C86.653 94.0541 83.7782 92.8784 80.8214 91.5811C77.9466 90.2838 75.2772 88.7027 72.8131 86.8378C70.3491 84.8919 68.3368 82.5405 66.7762 79.7838C65.2156 77.027 64.4353 73.6216 64.4353 69.5676C64.4353 64.7027 65.5852 60.4865 67.885 56.9189C70.1848 53.3514 73.347 50.5135 77.3717 48.4054C81.4784 46.2973 86.2012 45.1622 91.54 45C97.8645 45 103.244 45.7703 107.68 47.3108C112.197 48.7703 116.181 50.5541 119.63 52.6622L114.209 63.4865Z" fill="black"/>
</svg>
